<svg xmlns="http://www.w3.org/2000/svg" width="512" height="512" viewBox="0 0 512 512" role="img" aria-label="Aient">
  <rect width="512" height="512" rx="112" fill="#18190F"/>
  <g transform="translate(128, 128) scale(0.48484848484848486) translate(-245, -225)">
    <path fill="#F4F4F0" d="M532.307678,427.758240 C532.360413,430.050232 532.368225,431.883667 532.501831,433.707886 C532.532104,434.122162 532.998291,434.504578 533.309326,434.969604 C535.963379,434.108978 536.439697,431.546173 537.552185,429.650604 C558.296326,394.303864 578.965088,358.912903 599.655518,323.534576 C602.923950,317.945984 602.921448,317.991608 608.299255,321.270264 C615.268188,325.518951 622.261230,329.728943 629.281494,333.892212 C635.015869,337.258484 631.685974,342.907928 614.089355,372.950684 C596.499634,402.997589 578.931458,433.056976 575.161316,439.507721 C571.490051,446.016235 567.620056,452.765381 569.736938,453.397339 C570.893433,452.342743 572.110779,451.711243 618.989258,427.394775 C665.892212,403.124969 712.677002,378.629486 717.006042,376.362823 C719.090027,376.296143 721.432007,381.050720 725.179016,388.657745 C729.587219,395.957184 734.018127,403.201752 736.276001,406.893372 C735.880798,408.865845 731.861145,410.933960 684.461914,435.321442 C637.138184,459.855621 589.797241,484.356384 588.619812,484.965759 C587.472534,485.633575 584.927551,487.037140 589.187439,487.037140 C592.040466,487.037903 594.893494,487.037018 619.891968,487.029144 C644.890381,486.998871 669.888855,487.026733 677.148193,487.034851 C677.253845,487.189789 677.273193,494.208038 677.295715,502.374237 C677.070190,510.547302 677.344116,518.704224 677.491028,523.076599 C676.011963,524.491394 671.621094,524.455750 650.290100,524.282410 C628.956909,524.393433 607.624451,524.401978 600.498047,524.404846 C593.371704,524.402466 586.000854,525.411255 592.206787,528.794922 C598.387512,532.225830 604.623474,535.553162 621.819336,544.728577 C639.001343,553.931458 656.279846,562.949036 659.675049,564.720947 C660.549561,566.378235 658.467529,569.852844 653.760071,577.708984 C649.160767,585.645874 644.928162,593.764038 642.871338,597.709167 C640.986145,598.016174 637.195740,595.933228 616.172852,584.380249 C595.011230,573.079590 573.888550,561.708496 572.030884,560.708435 C570.111328,559.823303 566.926392,558.242493 571.370239,568.194641 C576.681152,576.004028 581.372375,584.125366 598.537415,613.841309 C615.837524,643.479553 633.192017,673.085388 635.075745,676.298950 C634.623474,677.856018 631.286072,679.639526 623.357605,683.876526 C615.531067,688.345276 607.945007,693.163879 604.379211,695.428772 C602.664917,695.030640 600.555115,691.413269 579.237000,654.859985 C557.781067,618.386963 536.349609,581.899719 535.437378,580.346619 C534.386292,578.875183 532.311890,577.513550 532.311890,579.415405 C532.312134,581.317261 532.311829,583.219116 532.303467,637.216858 C532.296997,691.214600 532.284302,745.212341 532.282593,752.309814 C532.267761,752.305603 525.108826,752.307007 516.442505,752.308777 C507.773529,752.194092 499.111206,752.382690 495.349213,752.464539 C494.307373,751.024719 494.319122,747.369324 494.494751,692.708252 C494.546234,638.046631 494.609863,583.385193 494.611755,581.751892 C494.793793,580.035156 493.050659,578.050110 489.933228,583.373291 C486.946106,588.473328 483.959625,593.573730 464.515350,626.781677 C445.033691,659.967773 425.687012,693.232483 423.816315,696.448975 C422.181335,696.325256 419.358154,694.604065 411.678070,689.921875 C403.966492,685.259338 396.015869,681.065796 391.802490,678.843567 C391.684143,676.717834 393.928680,672.932190 406.929169,651.005493 C419.765228,628.981140 432.620850,606.968750 441.357391,592.009399 C450.038574,577.017700 458.728790,562.031311 459.219635,561.184875 C459.567657,560.255493 460.201813,558.892639 457.772278,558.795959 C456.191193,559.997498 454.567230,560.823853 435.564423,570.493774 C416.582886,580.205627 397.598938,589.912598 391.089111,593.241272 C391.074066,593.259827 387.399170,586.703186 383.570679,579.872375 C379.985138,572.895203 375.903900,566.220154 373.444305,562.197266 C373.823792,559.990723 378.221436,557.756775 396.934753,548.250610 C415.507935,538.468262 434.114685,528.752991 435.671021,527.940430 C437.591431,527.596680 438.600128,525.717224 436.216003,523.913574 C433.491791,524.423096 430.924774,524.421265 383.926758,524.387695 C336.928741,524.397949 289.930695,524.393311 282.975830,524.392639 C282.945343,524.379456 282.928436,517.535706 282.908661,509.536163 C283.194977,501.526672 282.875061,493.540466 282.668762,488.391571 C284.747620,486.991425 289.612030,487.002258 336.776093,487.107117 C383.940521,487.041992 431.104828,486.998322 433.220978,486.996338 C435.414337,487.474854 437.814850,486.223938 436.672333,483.860565 C434.284454,483.321930 432.386230,482.303680 416.824219,473.955780 C401.300751,465.529724 385.590912,457.467804 381.074524,455.150085 C380.960724,452.988190 383.441467,449.024048 388.122559,441.543823 C392.560028,433.890045 396.669769,426.082550 398.606903,422.402466 C400.500671,422.377350 403.749664,424.142273 419.411133,432.649963 C435.155304,441.005524 450.873566,449.408630 453.161316,450.631714 C455.370514,452.102783 458.112091,452.254059 458.903625,449.847504 C457.406067,448.473358 456.533630,446.983276 436.162262,412.190826 C415.759338,377.416779 395.351715,342.645569 392.000549,336.935669 C391.993378,336.975159 397.639160,333.579224 404.776672,329.286011 C411.991333,325.107239 418.962524,320.557068 422.528412,318.229523 C424.579407,318.423187 426.835297,322.304901 445.668976,354.712250 C464.598480,387.064514 483.665649,419.334961 486.669312,424.418518 C488.955688,430.010864 493.270477,434.916565 494.615997,431.225067 C494.643768,427.960175 494.642792,424.685455 494.623688,360.854950 C494.610748,297.024475 494.591553,233.193985 494.589264,225.608124 C494.575836,225.613998 502.235626,225.630936 510.235291,225.648636 C518.246948,225.921356 526.230164,225.564621 531.114502,225.346375 C532.421753,227.050247 532.406677,231.808929 532.252014,280.639771 C532.307373,329.471283 532.305237,378.302612 532.304504,394.633850 C532.307190,410.965088 532.307678,427.758240 532.307678,427.758240 Z"/>
  </g>
</svg>
